<svg xmlns="http://www.w3.org/2000/svg" xmlns:xlink="http://www.w3.org/1999/xlink" version="1.1" x="0px" y="0px" viewBox="0 0 100 100" enable-background="new 0 0 100 100" xml:space="preserve"><g><g><g><g>
  <path d="M13.5,84.5c0,1.1,0.9,2,2,2h69c1.1,0,2-0.9,2-2v-11c0-1.1-0.9-2-2-2h-69c-1.1,0-2,0.9-2,2V84.5z"></path></g></g></g><g><g><g>
  <path d="M32.5,54.5c0,1.1,0.9,2,2,2h50c1.1,0,2-0.9,2-2v-10c0-1.1-0.9-2-2-2h-50c-1.1,0-2,0.9-2,2V54.5z"></path></g></g></g><g><g><g>
  <path d="M50.5,25.5c0,1.1,0.9,2,2,2h32c1.1,0,2-0.9,2-2v-10c0-1.1-0.9-2-2-2h-32c-1.1,0-2,0.9-2,2V25.5z"></path></g></g></g></g>
</svg>
