<svg xmlns="http://www.w3.org/2000/svg" xmlns:xlink="http://www.w3.org/1999/xlink" version="1.1" x="0px" y="0px" viewBox="0 0 100 100" enable-background="new 0 0 100 100" xml:space="preserve"><polygon points="-730,-115 -722.235,-143.978 -701.022,-122.764 "></polygon><rect x="-720" y="-180.65" transform="matrix(0.7071 -0.7071 0.7071 0.7071 -81.8449 -528.8907)" width="81.299" height="30"></rect><polygon points="-535,-183.787 -556.213,-205 -580,-181.213 -603.787,-205 -625,-183.787 -601.213,-160 -625,-136.213   -603.787,-115 -580,-138.787 -556.214,-115 -535,-136.213 -558.787,-160 "></polygon><polygon points="-430,-145 -430,-175 -460,-175 -460,-205 -490,-205 -490,-175 -520,-175 -520,-145 -490,-145 -490,-115   -460,-114.999 -460,-145 "></polygon><rect x="-415" y="-175" width="90" height="30"></rect><polygon points="-430,-78.787 -451.213,-100 -451.213,-78.787 "></polygon><path d="M-456.213-73.787V-100H-520v90h90v-63.787H-456.213z M-435-30.001h-15V-15l-15-0.001v-15h-15v-15h15v-15h15v15h15V-30.001z"></path><polygon points="-325,-78.787 -346.213,-100 -346.213,-78.787 "></polygon><path d="M-351.213-73.787V-100H-415v90h90v-63.787H-351.213z M-330-30h-45v-15h45V-30z"></path><polygon points="-745,-78.787 -766.213,-100 -766.213,-78.787 "></polygon><polygon points="-771.213,-73.787 -771.213,-100 -835,-100 -835,-10 -745,-10 -745,-73.787 "></polygon><polygon points="-640,-78.787 -661.213,-100 -661.213,-78.787 "></polygon><path d="M-666.213-73.787V-100H-730v90h90v-63.787H-666.213z M-690-15l3.883-14.488l10.605,10.606L-690-15z M-673.744-20.65  l-10.605-10.605L-655.606-60L-645-49.394L-673.744-20.65z"></path><polygon points="-535,-78.787 -556.213,-100 -556.213,-78.787 "></polygon><path d="M-561.213-73.787V-100H-625v90h90v-63.787H-561.213z M-540-25.606L-550.607-15L-562.5-26.894L-574.394-15L-585-25.606  l11.894-11.894L-585-49.394L-574.394-60l11.894,11.894L-550.606-60L-540-49.394L-551.894-37.5L-540-25.606z"></path><polygon points="-121.028,-160 -160,-137.5 -198.972,-115 -198.972,-160 -198.972,-205 -160,-182.5 "></polygon><rect x="-303.972" y="-205" width="30" height="90"></rect><rect x="-256.028" y="-205" width="30" height="90"></rect><polygon points="-115,-78.787 -136.213,-100 -136.213,-78.787 "></polygon><path d="M-141.213-73.787V-100H-205v90h90v-63.787H-141.213z M-142.5-26.25L-161.986-15v-22.5V-60l19.486,11.25l19.486,11.25  L-142.5-26.25z"></path><path d="M-766.213,5H-835v90h90V26.213L-766.213,5z M-750,90h-80V10h56.716v23.284H-750V90z M-768.284,28.284V10L-750,28.284  H-768.284z"></path><path d="M-661.213,5H-730v90h90V26.213L-661.213,5z M-645,90h-80V10h56.717v23.284H-645V90z M-663.283,28.284V10L-645,28.284  H-663.283z"></path><path d="M-556.213,5H-625v90h90V26.213L-556.213,5z M-540,90h-80V10h56.717v23.284H-540V90z M-558.283,28.284V10L-540,28.284  H-558.283z"></path><path d="M-451.213,5H-520v90h90V26.213L-451.213,5z M-435,90h-80V10h56.717v23.284H-435V90z M-453.283,28.284V10L-435,28.284  H-453.283z"></path><path d="M-346.213,5H-415v90h90V26.213L-346.213,5z M-330,90h-80V10h56.717v23.284H-330V90z M-348.283,28.284V10L-330,28.284  H-348.283z"></path><path d="M-346.213,5H-415v90h90V26.213L-346.213,5z M-330,90h-80V10h56.717v23.284H-330V90z M-348.283,28.284V10L-330,28.284  H-348.283z"></path><path d="M-136.213,5H-205v90h90V26.213L-136.213,5z M-120,90h-80V10h56.717v23.284H-120V90z M-138.283,28.284V10L-120,28.284  H-138.283z"></path><polygon points="-695,85 -691.118,70.512 -680.512,81.118 "></polygon><rect x="-690" y="52.175" transform="matrix(0.7071 -0.7071 0.7071 0.7071 -238.3441 -456.0573)" width="40.65" height="14.999"></rect><polygon points="-545,74.394 -555.607,85 -567.5,73.106 -579.394,85 -590,74.394 -578.106,62.5 -590,50.606 -579.394,40   -567.5,51.894 -555.606,40 -545,50.606 -556.894,62.5 "></polygon><polygon points="-440,70 -455,70 -455,85.001 -470,85 -470,70 -485,70 -485,55 -470,55 -470,40 -455,40 -455,55 -440,55 "></polygon><rect x="-380" y="55" width="45" height="15"></rect><polygon points="-128.014,62.5 -147.5,73.75 -166.986,85 -166.986,62.5 -166.986,40 -147.5,51.25 "></polygon><path d="M-10.001-176.471v-15h-13.527V-205h-15v13.529h-32.943V-205h-15v13.529h-13.529v15h13.529v32.943h-13.529v15h13.529V-115h15  v-13.527h32.943V-115h15v-13.527h13.527v-15h-13.527v-32.943H-10.001z M-38.528-143.527h-32.943v-32.943h32.943V-143.527z"></path><polyline fill="none" stroke="#000000" stroke-width="5" stroke-miterlimit="10" points="-12.5,7.5 -32.5,27.5 -32.5,92.5 "></polyline><polygon fill="none" stroke="#000000" stroke-width="5" stroke-miterlimit="10" points="-12.5,7.5 -12.5,72.5 -32.5,92.5   -97.5,92.5 -97.5,27.5 -77.5,7.5 "></polygon><line fill="none" stroke="#000000" stroke-width="5" stroke-miterlimit="10" stroke-dasharray="10" x1="-77.5" y1="72.5" x2="-97.5" y2="92.5"></line><path fill="none" stroke="#000000" stroke-width="5" stroke-miterlimit="10" d="M-77.5,7.5"></path><line fill="none" stroke="#000000" stroke-width="5" stroke-miterlimit="10" stroke-dasharray="10" x1="-77.5" y1="72.5" x2="-77.5" y2="7.5"></line><path fill="none" stroke="#000000" stroke-width="5" stroke-miterlimit="10" d="M-12.5,72.5"></path><line fill="none" stroke="#000000" stroke-width="5" stroke-miterlimit="10" x1="-97.5" y1="27.5" x2="-32.5" y2="27.5"></line><line fill="none" stroke="#000000" stroke-width="5" stroke-miterlimit="10" stroke-dasharray="10" x1="-77.5" y1="72.5" x2="-12.5" y2="72.5"></line><polygon points="-239.485,-66.25 -258.972,-77.5 -258.972,-62.5 -310,-62.5 -310,-47.5 -258.972,-47.5 -258.972,-32.5   -239.485,-43.75 -220,-55 "></polygon><rect x="-310" y="80" width="90" height="15"></rect><polygon points="-253.75,60.515 -242.5,41.028 -257.5,41.028 -257.5,5 -272.5,5 -272.5,41.028 -287.5,41.028 -276.25,60.515   -265,80 "></polygon><polygon points="-80,-87.01 -87.5,-74.02 -77.5,-74.02 -77.5,-25 -67.5,-25 -67.5,-74.02 -57.5,-74.02 -65,-87.01 -72.5,-100 "></polygon><polygon points="-45,-87.01 -52.5,-74.02 -42.5,-74.02 -42.5,-25 -32.5,-25 -32.5,-74.02 -22.5,-74.02 -30,-87.01 -37.5,-100 "></polygon><rect x="-85" y="-20" width="60" height="10"></rect><path d="M72.358-57.5c-0.528-4.776-2.563-9.091-5.604-12.487l-5.319,5.319c1.698,2.007,2.882,4.464,3.339,7.168H52.5v-12.274  c2.704,0.457,5.161,1.641,7.168,3.339l5.319-5.319c-3.396-3.04-7.711-5.075-12.487-5.604V-100h-5v22.642  c-4.776,0.528-9.091,2.563-12.487,5.604l5.319,5.319c2.007-1.698,4.464-2.882,7.168-3.339V-57.5H35.226  c0.457-2.704,1.641-5.161,3.339-7.168l-5.319-5.319c-3.04,3.396-5.075,7.711-5.604,12.487H5v5h22.642  c0.528,4.776,2.563,9.091,5.604,12.487l5.319-5.319c-1.698-2.007-2.882-4.464-3.339-7.168H47.5v12.274  c-2.704-0.457-5.161-1.641-7.168-3.339l-5.319,5.319c3.396,3.04,7.711,5.075,12.487,5.604V-10h5v-22.642  c4.776-0.528,9.091-2.563,12.487-5.604l-5.319-5.319c-2.007,1.698-4.464,2.882-7.168,3.339V-52.5h12.274  c-0.457,2.704-1.641,5.161-3.339,7.168l5.319,5.319c3.04-3.396,5.075-7.711,5.604-12.487H95v-5H72.358z"></path><path d="M155-100c-24.853,0-45,20.147-45,45s20.147,45,45,45s45-20.147,45-45S179.853-100,155-100z M115-55h40v-40  c22.056,0,40,17.944,40,40h-40v40C132.944-15,115-32.944,115-55z"></path><path d="M-790,115c22.054,0,40,17.944,40,40s-17.945,40-40,40c-22.056,0-40-17.944-40-40S-812.056,115-790,115 M-790,110  c-24.853,0-45,20.147-45,45s20.147,45,45,45c24.851,0,45-20.147,45-45S-765.148,110-790,110L-790,110z"></path><polygon points="-769.6,169.665 -792.5,156.443 -792.5,120 -787.5,120 -787.5,153.557 -767.1,165.335 "></polygon><polygon points="-454.6,169.665 -477.5,156.443 -477.5,120 -472.5,120 -472.5,153.557 -452.1,165.335 "></polygon><polygon points="-475,185 -475,170 -490,170 -490,155 -505,155 -505,170 -520,170 -520,185 -505,185 -505,200 -490,200.001   -490,185 "></polygon><path d="M-475,110c-24.853,0-45,20.147-45,45c0,4.339,0.627,8.529,1.772,12.5h5.238c-1.298-3.936-2.011-8.135-2.011-12.5  c0-22.056,17.944-40,40-40s40,17.944,40,40s-17.944,40-40,40c-4.365,0-8.564-0.713-12.5-2.011v5.238  c3.971,1.146,8.161,1.772,12.5,1.772c24.853,0,45-20.147,45-45S-450.147,110-475,110z"></path><polygon points="-559.6,169.665 -582.5,156.443 -582.5,120 -577.5,120 -577.5,153.557 -557.1,165.335 "></polygon><polygon points="-580,189.394 -590.607,200 -602.5,188.106 -614.394,200 -625,189.394 -613.106,177.5 -625,165.606 -614.394,155   -602.5,166.894 -590.606,155 -580,165.606 -591.894,177.5 "></polygon><path d="M-616.642,177.5l-4.688-4.688c0.923,2.138,2.01,4.187,3.239,6.138L-616.642,177.5z"></path><path d="M-602.5,191.642l-1.449,1.449c1.951,1.229,3.999,2.316,6.137,3.239L-602.5,191.642z"></path><path d="M-580,110c-24.853,0-45,20.147-45,45c0,2.238,0.169,4.437,0.484,6.587l4.566-4.566c-0.033-0.67-0.051-1.343-0.051-2.021  c0-22.056,17.944-40,40-40c22.055,0,40,17.944,40,40s-17.945,40-40,40c-0.678,0-1.351-0.018-2.021-0.051l-4.566,4.566  c2.15,0.315,4.349,0.484,6.587,0.484c24.852,0,45-20.147,45-45S-555.148,110-580,110z"></path><polygon points="-349.6,169.665 -372.5,156.443 -372.5,120 -367.5,120 -367.5,153.557 -347.1,165.335 "></polygon><rect x="-415" y="169.999" width="45" height="15"></rect><path d="M-370,110c-24.853,0-45,20.147-45,45c0,4.339,0.627,8.529,1.772,12.499h5.238C-409.287,163.563-410,159.364-410,155  c0-22.056,17.944-40,40-40c22.055,0,40,17.944,40,40s-17.945,40-40,40c-8.679,0-16.714-2.787-23.276-7.501h-7.831  C-393.025,195.237-382.072,200-370,200c24.852,0,45-20.147,45-45S-345.148,110-370,110z"></path><polygon points="-664.6,169.665 -687.5,156.443 -687.5,120 -682.5,120 -682.5,153.557 -662.1,165.335 "></polygon><polygon points="-730,200 -726.118,185.512 -715.512,196.118 "></polygon><rect x="-725" y="167.175" transform="matrix(0.7071 -0.7071 0.7071 0.7071 -329.9136 -447.1228)" width="40.65" height="14.999"></rect><path d="M-685,110c-24.853,0-45,20.147-45,45c0,8.805,2.538,17.012,6.909,23.949l3.646-3.646C-722.968,169.347-725,162.407-725,155  c0-22.056,17.944-40,40-40c22.054,0,40,17.944,40,40s-17.945,40-40,40c-7.408,0-14.347-2.031-20.304-5.556l-3.646,3.646  c6.937,4.371,15.145,6.909,23.95,6.909c24.851,0,45-20.147,45-45S-660.148,110-685,110z"></path><polygon points="-453.786,-222.573 -432.573,-243.787 -453.786,-265 -432.573,-286.213 -453.786,-307.426 -475,-286.213   -496.213,-307.426 -517.426,-286.213 -496.213,-265 -517.426,-243.787 -496.214,-222.573 -475,-243.787 "></polygon><polygon points="-861.25,-78.787 -882.463,-100 -882.463,-78.787 "></polygon><polygon points="-887.463,-73.787 -887.463,-100 -928.75,-100 -928.75,-10 -861.25,-10 -861.25,-73.787 "></polygon><path d="M-882.463,5h-46.287v90h67.5V26.213L-882.463,5z M-866.25,90h-57.5V10h34.216v23.284h23.284V90z M-884.534,28.284V10  l18.284,18.284H-884.534z"></path><polygon points="-976.213,-88.75 -955,-67.537 -976.213,-67.537 "></polygon><polygon points="-981.213,-62.537 -955,-62.537 -955,-21.25 -1045,-21.25 -1045,-88.75 -981.213,-88.75 "></polygon><path d="M-976.213,16.25H-1045v67.5h90V37.463L-976.213,16.25z M-983.284,21.25v23.283H-960V78.75h-80v-57.5H-983.284z   M-978.284,21.25L-960,39.533h-18.284V21.25z"></path><polygon points="95,95 95,65 95,5 65,5 65,35 35,35 35,65 5,65 5,95 "></polygon><polygon points="185,5 185,20 170,20 170,35 155,35 155,50 140,50 140,65 125,65 125,80 110,80 110,95 200,95 200,5 "></polygon><polygon points="290,5 290,20 275,20 275,35 260,35 260,50 245,50 245,65 230,65 230,80 215,80 215,95 229.999,95 305,20 305,5 "></polygon><path fill="none" stroke="#000000" stroke-miterlimit="10" d="M742.5,162.5"></path><path fill="none" stroke="#000000" stroke-miterlimit="10" d="M742.5,160"></path></svg>